<svg width="48" height="50" viewBox="0 0 48 50" fill="none" xmlns="http://www.w3.org/2000/svg">
<path d="M39.4167 28.6358V12.155L27.2617 0H0.25V50H36.9167C42.89 50 47.75 45.14 47.75 39.1667C47.75 34.055 44.1867 29.7692 39.4167 28.6358ZM27.75 2.845L36.5717 11.6667H27.75V2.845ZM31.1483 48.3333H1.91667V1.66667H26.0833V13.3333H37.75V28.37C37.465 28.3458 37.1883 28.3333 36.9167 28.3333C30.9433 28.3333 26.0833 33.1933 26.0833 39.1667C26.0833 39.4992 26.1042 39.8267 26.1333 40.1525C26.14 40.2283 26.1475 40.3033 26.1558 40.3792C26.1917 40.6975 26.2375 41.0125 26.3 41.3217C26.3075 41.3583 26.3175 41.3942 26.325 41.4308C26.385 41.7125 26.4575 41.9892 26.5392 42.2625C26.56 42.3308 26.5792 42.4 26.6008 42.4675C26.695 42.7608 26.8 43.0492 26.9175 43.3317C26.94 43.385 26.965 43.4367 26.9875 43.4892C27.095 43.7358 27.2117 43.9767 27.3367 44.2133C27.3667 44.27 27.395 44.3275 27.4258 44.3842C27.5717 44.6483 27.7283 44.9058 27.8958 45.1567C27.9342 45.2142 27.9742 45.2692 28.0133 45.3258C28.1658 45.5458 28.3258 45.76 28.4933 45.9675C28.525 46.0067 28.555 46.0475 28.5875 46.0867C28.78 46.3183 28.9833 46.54 29.1942 46.7542C29.2458 46.8067 29.2983 46.8575 29.3517 46.9092C29.5558 47.1083 29.765 47.3017 29.9842 47.4842C30.0033 47.5008 30.0217 47.5183 30.0417 47.5342C30.2767 47.7275 30.5225 47.9083 30.7742 48.0825C30.835 48.125 30.8967 48.1658 30.9583 48.2067C31.0225 48.2475 31.0842 48.2925 31.1483 48.3333ZM36.9167 48.3333C31.8625 48.3333 27.75 44.2208 27.75 39.1667C27.75 34.1125 31.8625 30 36.9167 30C37.1767 30 37.4333 30.0175 37.6883 30.0392C37.9308 30.0625 38.1817 30.0942 38.4458 30.1383L38.815 30.2C42.9608 31.0775 46.0833 34.7633 46.0833 39.1667C46.0833 44.2208 41.9708 48.3333 36.9167 48.3333Z" fill="#ED2A23"/>
</svg>
