<svg width="77" height="77" viewBox="0 0 77 77" fill="none" xmlns="http://www.w3.org/2000/svg">
<path d="M76.9998 29.5148C76.9998 29.4879 76.9857 29.4647 76.9845 29.4391C76.9765 29.3503 76.9589 29.2624 76.9319 29.1773C76.9141 29.1014 76.8896 29.0271 76.8588 28.9553C76.8221 28.8873 76.7792 28.8228 76.7305 28.7628C76.6797 28.6893 76.6212 28.6213 76.5559 28.5601C76.5353 28.542 76.5264 28.5177 76.5046 28.501L64.1665 18.9157V8.98114C64.1665 6.85488 62.4427 5.13108 60.3164 5.13108H46.4087L40.84 0.80742C39.4641 -0.264583 37.5356 -0.264583 36.1597 0.80742L30.59 5.13108H16.6822C14.556 5.13108 12.8322 6.85473 12.8322 8.98114V18.9157L0.495245 28.501C0.473438 28.5177 0.464414 28.542 0.443961 28.5601C0.37869 28.6213 0.320187 28.6893 0.269354 28.7628C0.220627 28.8228 0.177614 28.8873 0.141069 28.9553C0.109937 29.0269 0.0854234 29.1012 0.0679778 29.1773C0.0412078 29.2608 0.0236117 29.3468 0.0153401 29.434C0.0153401 29.4597 0 29.4828 0 29.5097V73.1488C0.00511337 73.5621 0.0774525 73.9716 0.21431 74.3616C-0.08031 74.8059 -0.0664738 75.3867 0.24875 75.8165C0.563975 76.2463 1.11381 76.434 1.62605 76.2866C2.27455 76.75 3.05178 76.9991 3.84886 76.9989H73.1501C73.9505 76.9973 74.7301 76.7446 75.3792 76.2764C75.4887 76.3101 75.6022 76.3286 75.7167 76.3316C76.1855 76.3343 76.6177 76.0789 76.8415 75.667C77.0653 75.2551 77.0444 74.7535 76.787 74.3618C76.9234 73.9718 76.9953 73.5621 77.0001 73.149V29.5148H76.9998ZM37.7292 2.83262C38.1773 2.47649 38.812 2.47649 39.2602 2.83262L42.2208 5.13108H34.7774L37.7292 2.83262ZM4.16695 74.4323L37.7293 48.3622C38.1778 48.0082 38.8106 48.0082 39.2591 48.3622L72.8315 74.4323H4.16695ZM74.4332 72.4277L40.8375 46.3358C39.4624 45.2653 37.5361 45.2653 36.161 46.3358L2.56526 72.4277V31.4693L23.5956 47.8001C24.156 48.2345 24.9624 48.1326 25.3969 47.5722C25.8314 47.0118 25.7294 46.2054 25.1691 45.771L3.80375 29.1799L12.8322 22.1651V32.0816C12.8322 32.7904 13.4068 33.3649 14.1155 33.3649C14.8243 33.3649 15.3988 32.7902 15.3988 32.0816V8.98114C15.3988 8.27234 15.9733 7.69784 16.6821 7.69784H60.3161C61.0249 7.69784 61.5994 8.27234 61.5994 8.98114V32.0816C61.5994 32.7904 62.1739 33.3649 62.8827 33.3649C63.5915 33.3649 64.166 32.7902 64.166 32.0816V22.1651L73.1944 29.1799L51.7909 45.8006C51.231 46.2354 51.1296 47.0418 51.5644 47.6018C51.9992 48.1617 52.8056 48.2631 53.3657 47.8283L74.4332 31.4695V72.4277Z" fill="#ED2A23"/>
</svg>
